<svg viewBox="0 0 625.5 36" class="w-full h-auto" xmlns="http://www.w3.org/2000/svg">
<g id="svgGroup" stroke-linecap="round" fill-rule="evenodd" fill="currentColor">
<path d="M 1.35 0.501 L 17.3 0.501 Q 22.8 0.501 26.85 1.951 Q 30.9 3.401 33.4 6.851 Q 35.9 10.301 35.9 15.451 L 35.9 20.551 Q 35.9 28.551 30.5 32.201 Q 26.375 34.951 19.958 35.409 A 37.33 37.33 0 0 1 17.3 35.501 L 1.35 35.501 A 1.295 1.295 0 0 1 0.413 35.113 A 1.637 1.637 0 0 1 0.4 35.101 A 1.355 1.355 0 0 1 0.084 34.622 A 1.317 1.317 0 0 1 0 34.151 L 0 1.851 A 1.295 1.295 0 0 1 0.388 0.913 A 1.637 1.637 0 0 1 0.4 0.901 A 1.355 1.355 0 0 1 0.879 0.584 A 1.317 1.317 0 0 1 1.35 0.501 Z M 17.55 10.251 L 13 10.251 L 13 25.751 L 17.55 25.751 Q 19.37 25.751 20.605 25.076 A 4.342 4.342 0 0 0 21.275 24.626 A 3.661 3.661 0 0 0 22.593 22.245 A 5.356 5.356 0 0 0 22.65 21.451 L 22.65 14.551 Q 22.65 12.501 21.275 11.376 Q 20.061 10.382 18.087 10.266 A 9.131 9.131 0 0 0 17.55 10.251 Z" id="0" vector-effect="non-scaling-stroke"/>
<path d="M 56.2 22.601 L 56.2 25.751 L 76.15 25.751 A 1.295 1.295 0 0 1 77.088 26.138 A 1.637 1.637 0 0 1 77.1 26.151 A 1.355 1.355 0 0 1 77.417 26.629 A 1.317 1.317 0 0 1 77.5 27.101 L 77.5 34.151 A 1.295 1.295 0 0 1 77.112 35.088 A 1.637 1.637 0 0 1 77.1 35.101 A 1.355 1.355 0 0 1 76.621 35.417 A 1.317 1.317 0 0 1 76.15 35.501 L 44.55 35.501 A 1.295 1.295 0 0 1 43.613 35.113 A 1.637 1.637 0 0 1 43.6 35.101 A 1.355 1.355 0 0 1 43.284 34.622 A 1.317 1.317 0 0 1 43.2 34.151 L 43.2 1.851 A 1.295 1.295 0 0 1 43.588 0.913 A 1.637 1.637 0 0 1 43.6 0.901 A 1.355 1.355 0 0 1 44.079 0.584 A 1.317 1.317 0 0 1 44.55 0.501 L 75.65 0.501 A 1.295 1.295 0 0 1 76.588 0.888 A 1.637 1.637 0 0 1 76.6 0.901 A 1.355 1.355 0 0 1 76.917 1.379 A 1.317 1.317 0 0 1 77 1.851 L 77 8.901 A 1.295 1.295 0 0 1 76.612 9.838 A 1.637 1.637 0 0 1 76.6 9.851 A 1.355 1.355 0 0 1 76.121 10.167 A 1.317 1.317 0 0 1 75.65 10.251 L 56.2 10.251 L 56.2 13.401 L 72.9 13.401 A 1.295 1.295 0 0 1 73.838 13.788 A 1.637 1.637 0 0 1 73.85 13.801 A 1.355 1.355 0 0 1 74.167 14.279 A 1.317 1.317 0 0 1 74.25 14.751 L 74.25 21.251 A 1.295 1.295 0 0 1 73.862 22.188 A 1.637 1.637 0 0 1 73.85 22.201 A 1.355 1.355 0 0 1 73.371 22.517 A 1.317 1.317 0 0 1 72.9 22.601 L 56.2 22.601 Z" id="1" vector-effect="non-scaling-stroke"/>
<path d="M 110.45 0.501 L 121 0.501 A 1.056 1.056 0 0 1 121.765 0.815 A 1.321 1.321 0 0 1 121.775 0.826 Q 121.971 1.022 122.049 1.209 A 0.627 0.627 0 0 1 122.1 1.451 Q 122.1 1.673 122.072 1.841 A 1.367 1.367 0 0 1 122.05 1.951 L 110.55 33.851 Q 110 35.501 108.3 35.501 L 96.65 35.501 A 2.759 2.759 0 0 1 95.767 35.368 Q 94.957 35.096 94.559 34.26 A 3.025 3.025 0 0 1 94.45 34.001 L 82.85 1.951 A 1.468 1.468 0 0 1 82.82 1.787 Q 82.8 1.638 82.8 1.451 Q 82.8 1.224 82.985 0.984 A 1.63 1.63 0 0 1 83.125 0.826 A 1.095 1.095 0 0 1 83.53 0.563 A 1.084 1.084 0 0 1 83.9 0.501 L 94.45 0.501 A 2.525 2.525 0 0 1 95.128 0.587 A 1.932 1.932 0 0 1 95.925 1.026 A 3.287 3.287 0 0 1 96.35 1.491 A 2.355 2.355 0 0 1 96.7 2.151 L 102.45 21.301 L 108.2 2.151 A 2.524 2.524 0 0 1 108.58 1.325 Q 109.177 0.501 110.45 0.501 Z" id="2" vector-effect="non-scaling-stroke"/>
<path d="M 141.2 22.601 L 141.2 25.751 L 161.15 25.751 A 1.295 1.295 0 0 1 162.088 26.138 A 1.637 1.637 0 0 1 162.1 26.151 A 1.355 1.355 0 0 1 162.417 26.629 A 1.317 1.317 0 0 1 162.5 27.101 L 162.5 34.151 A 1.295 1.295 0 0 1 162.112 35.088 A 1.637 1.637 0 0 1 162.1 35.101 A 1.355 1.355 0 0 1 161.621 35.417 A 1.317 1.317 0 0 1 161.15 35.501 L 129.55 35.501 A 1.295 1.295 0 0 1 128.613 35.113 A 1.637 1.637 0 0 1 128.6 35.101 A 1.355 1.355 0 0 1 128.284 34.622 A 1.317 1.317 0 0 1 128.2 34.151 L 128.2 1.851 A 1.295 1.295 0 0 1 128.588 0.913 A 1.637 1.637 0 0 1 128.6 0.901 A 1.355 1.355 0 0 1 129.079 0.584 A 1.317 1.317 0 0 1 129.55 0.501 L 160.65 0.501 A 1.295 1.295 0 0 1 161.588 0.888 A 1.637 1.637 0 0 1 161.6 0.901 A 1.355 1.355 0 0 1 161.917 1.379 A 1.317 1.317 0 0 1 162 1.851 L 162 8.901 A 1.295 1.295 0 0 1 161.612 9.838 A 1.637 1.637 0 0 1 161.6 9.851 A 1.355 1.355 0 0 1 161.121 10.167 A 1.317 1.317 0 0 1 160.65 10.251 L 141.2 10.251 L 141.2 13.401 L 157.9 13.401 A 1.295 1.295 0 0 1 158.838 13.788 A 1.637 1.637 0 0 1 158.85 13.801 A 1.355 1.355 0 0 1 159.167 14.279 A 1.317 1.317 0 0 1 159.25 14.751 L 159.25 21.251 A 1.295 1.295 0 0 1 158.862 22.188 A 1.637 1.637 0 0 1 158.85 22.201 A 1.355 1.355 0 0 1 158.371 22.517 A 1.317 1.317 0 0 1 157.9 22.601 L 141.2 22.601 Z" id="3" vector-effect="non-scaling-stroke"/>
<path d="M 186.7 1.851 L 186.7 25.251 L 203.75 25.251 A 1.295 1.295 0 0 1 204.688 25.638 A 1.637 1.637 0 0 1 204.7 25.651 A 1.355 1.355 0 0 1 205.017 26.129 A 1.317 1.317 0 0 1 205.1 26.601 L 205.1 34.151 A 1.295 1.295 0 0 1 204.712 35.088 A 1.637 1.637 0 0 1 204.7 35.101 A 1.355 1.355 0 0 1 204.221 35.417 A 1.317 1.317 0 0 1 203.75 35.501 L 174.55 35.501 A 1.295 1.295 0 0 1 173.613 35.113 A 1.637 1.637 0 0 1 173.6 35.101 A 1.355 1.355 0 0 1 173.284 34.622 A 1.317 1.317 0 0 1 173.2 34.151 L 173.2 1.851 A 1.295 1.295 0 0 1 173.588 0.913 A 1.637 1.637 0 0 1 173.6 0.901 A 1.355 1.355 0 0 1 174.079 0.584 A 1.317 1.317 0 0 1 174.55 0.501 L 185.35 0.501 A 1.295 1.295 0 0 1 186.288 0.888 A 1.637 1.637 0 0 1 186.3 0.901 A 1.355 1.355 0 0 1 186.617 1.379 A 1.317 1.317 0 0 1 186.7 1.851 Z" id="4" vector-effect="non-scaling-stroke"/>
<path d="M 248.55 14.951 L 248.55 21.051 A 17.559 17.559 0 0 1 248.137 24.954 A 12.718 12.718 0 0 1 246.05 29.651 Q 243.55 33.101 239.5 34.551 A 23.508 23.508 0 0 1 235.162 35.627 Q 233.064 35.951 230.685 35.994 A 40.626 40.626 0 0 1 229.95 36.001 Q 224.45 36.001 220.4 34.551 Q 216.35 33.101 213.85 29.651 A 12.762 12.762 0 0 1 211.732 24.777 A 18.212 18.212 0 0 1 211.35 20.951 L 211.35 15.051 A 17.447 17.447 0 0 1 211.907 10.505 A 11.918 11.918 0 0 1 216.525 3.751 Q 221.7 0.001 229.95 0.001 Q 236.984 0.001 241.783 2.727 A 17.136 17.136 0 0 1 243.375 3.751 A 12.168 12.168 0 0 1 248.337 12.077 A 18.535 18.535 0 0 1 248.55 14.951 Z M 224.85 14.001 L 224.85 22.001 A 4.872 4.872 0 0 0 225.02 23.325 A 3.494 3.494 0 0 0 226.225 25.151 Q 227.436 26.12 229.404 26.235 A 9.327 9.327 0 0 0 229.95 26.251 Q 231.77 26.251 233.005 25.576 A 4.342 4.342 0 0 0 233.675 25.126 A 3.661 3.661 0 0 0 234.993 22.745 A 5.356 5.356 0 0 0 235.05 21.951 L 235.05 14.051 Q 235.05 12.001 233.675 10.876 Q 232.461 9.882 230.487 9.766 A 9.131 9.131 0 0 0 229.95 9.751 A 8.141 8.141 0 0 0 228.45 9.881 Q 227.127 10.129 226.225 10.851 A 3.575 3.575 0 0 0 224.911 13.178 A 5.309 5.309 0 0 0 224.85 14.001 Z" id="5" vector-effect="non-scaling-stroke"/>
<path d="M 258.85 0.501 L 277.55 0.501 A 23.711 23.711 0 0 1 282.083 0.908 Q 284.797 1.437 286.925 2.653 A 13.057 13.057 0 0 1 288.8 3.951 A 11.371 11.371 0 0 1 291.976 8.027 A 11.475 11.475 0 0 1 292.95 12.801 A 13.434 13.434 0 0 1 292.437 16.609 A 10.213 10.213 0 0 1 289.45 21.376 Q 286.257 24.272 278.984 24.526 A 41.141 41.141 0 0 1 277.55 24.551 L 270.95 24.551 L 270.95 34.151 A 1.295 1.295 0 0 1 270.562 35.088 A 1.637 1.637 0 0 1 270.55 35.101 A 1.355 1.355 0 0 1 270.071 35.417 A 1.317 1.317 0 0 1 269.6 35.501 L 258.85 35.501 A 1.295 1.295 0 0 1 257.913 35.113 A 1.637 1.637 0 0 1 257.9 35.101 A 1.355 1.355 0 0 1 257.584 34.622 A 1.317 1.317 0 0 1 257.5 34.151 L 257.5 1.851 A 1.295 1.295 0 0 1 257.888 0.913 A 1.637 1.637 0 0 1 257.9 0.901 A 1.355 1.355 0 0 1 258.379 0.584 A 1.317 1.317 0 0 1 258.85 0.501 Z M 277.35 9.801 L 271 9.801 L 271 15.301 L 277.35 15.301 Q 278.5 15.301 279.225 14.601 A 2.296 2.296 0 0 0 279.864 13.445 A 3.471 3.471 0 0 0 279.95 12.651 A 3.654 3.654 0 0 0 279.837 11.718 A 2.725 2.725 0 0 0 279.25 10.601 A 2.301 2.301 0 0 0 277.73 9.822 A 3.261 3.261 0 0 0 277.35 9.801 Z" id="6" vector-effect="non-scaling-stroke"/>
<path d="M 311.2 22.601 L 311.2 25.751 L 331.15 25.751 A 1.295 1.295 0 0 1 332.088 26.138 A 1.637 1.637 0 0 1 332.1 26.151 A 1.355 1.355 0 0 1 332.417 26.629 A 1.317 1.317 0 0 1 332.5 27.101 L 332.5 34.151 A 1.295 1.295 0 0 1 332.112 35.088 A 1.637 1.637 0 0 1 332.1 35.101 A 1.355 1.355 0 0 1 331.621 35.417 A 1.317 1.317 0 0 1 331.15 35.501 L 299.55 35.501 A 1.295 1.295 0 0 1 298.613 35.113 A 1.637 1.637 0 0 1 298.6 35.101 A 1.355 1.355 0 0 1 298.284 34.622 A 1.317 1.317 0 0 1 298.2 34.151 L 298.2 1.851 A 1.295 1.295 0 0 1 298.588 0.913 A 1.637 1.637 0 0 1 298.6 0.901 A 1.355 1.355 0 0 1 299.079 0.584 A 1.317 1.317 0 0 1 299.55 0.501 L 330.65 0.501 A 1.295 1.295 0 0 1 331.588 0.888 A 1.637 1.637 0 0 1 331.6 0.901 A 1.355 1.355 0 0 1 331.917 1.379 A 1.317 1.317 0 0 1 332 1.851 L 332 8.901 A 1.295 1.295 0 0 1 331.612 9.838 A 1.637 1.637 0 0 1 331.6 9.851 A 1.355 1.355 0 0 1 331.121 10.167 A 1.317 1.317 0 0 1 330.65 10.251 L 311.2 10.251 L 311.2 13.401 L 327.9 13.401 A 1.295 1.295 0 0 1 328.838 13.788 A 1.637 1.637 0 0 1 328.85 13.801 A 1.355 1.355 0 0 1 329.167 14.279 A 1.317 1.317 0 0 1 329.25 14.751 L 329.25 21.251 A 1.295 1.295 0 0 1 328.862 22.188 A 1.637 1.637 0 0 1 328.85 22.201 A 1.355 1.355 0 0 1 328.371 22.517 A 1.317 1.317 0 0 1 327.9 22.601 L 311.2 22.601 Z" id="7" vector-effect="non-scaling-stroke"/>
<path d="M 371.15 22.451 L 377.3 33.951 A 0.812 0.812 0 0 1 377.361 34.121 Q 377.4 34.281 377.4 34.501 A 0.802 0.802 0 0 1 377.292 34.896 Q 377.228 35.011 377.125 35.124 A 1.616 1.616 0 0 1 377.075 35.176 A 1.095 1.095 0 0 1 376.67 35.438 A 1.084 1.084 0 0 1 376.3 35.501 L 364.95 35.501 A 2.779 2.779 0 0 1 364.105 35.38 Q 363.264 35.112 362.85 34.251 L 358.45 24.351 L 354.25 24.351 L 354.25 34.151 A 1.295 1.295 0 0 1 353.862 35.088 A 1.637 1.637 0 0 1 353.85 35.101 A 1.355 1.355 0 0 1 353.371 35.417 A 1.317 1.317 0 0 1 352.9 35.501 L 342.1 35.501 A 1.295 1.295 0 0 1 341.163 35.113 A 1.637 1.637 0 0 1 341.15 35.101 A 1.355 1.355 0 0 1 340.834 34.622 A 1.317 1.317 0 0 1 340.75 34.151 L 340.75 1.851 A 1.295 1.295 0 0 1 341.138 0.913 A 1.637 1.637 0 0 1 341.15 0.901 A 1.355 1.355 0 0 1 341.629 0.584 A 1.317 1.317 0 0 1 342.1 0.501 L 361.55 0.501 A 23.405 23.405 0 0 1 365.923 0.885 Q 368.451 1.366 370.45 2.45 A 12.623 12.623 0 0 1 372.4 3.751 A 10.568 10.568 0 0 1 376.359 11.487 A 14.733 14.733 0 0 1 376.4 12.601 A 13.771 13.771 0 0 1 375.861 16.572 A 9.906 9.906 0 0 1 371.15 22.451 Z M 360.5 9.801 L 354.25 9.801 L 354.25 15.101 L 360.5 15.101 A 2.671 2.671 0 0 0 361.212 15.011 A 1.911 1.911 0 0 0 362.2 14.376 A 2.576 2.576 0 0 0 362.753 13.14 A 3.519 3.519 0 0 0 362.8 12.551 A 3.552 3.552 0 0 0 362.633 11.445 A 3.108 3.108 0 0 0 362.225 10.626 A 1.87 1.87 0 0 0 360.878 9.825 A 2.83 2.83 0 0 0 360.5 9.801 Z" id="8" vector-effect="non-scaling-stroke"/>
<path d="M 429.45 19.051 L 429.45 16.951 A 1.913 1.913 0 0 1 429.824 15.834 Q 430.038 15.53 430.374 15.242 A 5.147 5.147 0 0 1 430.9 14.851 L 451.9 1.351 Q 452.132 1.212 452.47 1.201 A 1.808 1.808 0 0 1 452.525 1.201 A 0.893 0.893 0 0 1 453.085 1.399 A 1.227 1.227 0 0 1 453.2 1.501 A 1.012 1.012 0 0 1 453.5 2.222 A 1.328 1.328 0 0 1 453.5 2.251 L 453.5 10.351 A 3.171 3.171 0 0 1 453.473 10.784 Q 453.395 11.342 453.1 11.601 Q 452.708 11.943 452.604 11.998 A 0.208 0.208 0 0 1 452.6 12.001 A 36.666 36.666 0 0 1 452.447 12.118 Q 451.965 12.484 451.905 12.5 A 0.019 0.019 0 0 1 451.9 12.501 L 443.15 18.001 L 451.9 23.501 Q 452.072 23.501 452.485 23.852 A 6.296 6.296 0 0 1 452.625 23.976 A 10.181 10.181 0 0 1 452.805 24.142 Q 453.153 24.473 453.199 24.596 A 0.153 0.153 0 0 1 453.2 24.601 A 4.934 4.934 0 0 1 453.345 24.946 Q 453.5 25.363 453.5 25.651 L 453.5 33.751 A 1.109 1.109 0 0 1 453.432 34.145 A 0.997 0.997 0 0 1 453.2 34.501 A 1.106 1.106 0 0 1 452.944 34.695 A 0.87 0.87 0 0 1 452.525 34.801 Q 452.15 34.801 451.9 34.651 L 430.9 21.151 Q 429.45 20.201 429.45 19.051 Z" id="10" vector-effect="non-scaling-stroke"/>
<path d="M 467.7 0.501 L 502.2 0.501 A 1.295 1.295 0 0 1 503.138 0.888 A 1.637 1.637 0 0 1 503.15 0.901 A 1.355 1.355 0 0 1 503.467 1.379 A 1.317 1.317 0 0 1 503.55 1.851 L 503.55 9.901 A 1.295 1.295 0 0 1 503.162 10.838 A 1.637 1.637 0 0 1 503.15 10.851 A 1.355 1.355 0 0 1 502.671 11.167 A 1.317 1.317 0 0 1 502.2 11.251 L 491.45 11.251 L 491.45 34.151 A 1.295 1.295 0 0 1 491.062 35.088 A 1.637 1.637 0 0 1 491.05 35.101 A 1.355 1.355 0 0 1 490.571 35.417 A 1.317 1.317 0 0 1 490.1 35.501 L 479.8 35.501 A 1.295 1.295 0 0 1 478.863 35.113 A 1.637 1.637 0 0 1 478.85 35.101 A 1.355 1.355 0 0 1 478.534 34.622 A 1.317 1.317 0 0 1 478.45 34.151 L 478.45 11.251 L 467.7 11.251 A 1.295 1.295 0 0 1 466.763 10.863 A 1.637 1.637 0 0 1 466.75 10.851 A 1.355 1.355 0 0 1 466.434 10.372 A 1.317 1.317 0 0 1 466.35 9.901 L 466.35 1.851 A 1.295 1.295 0 0 1 466.738 0.913 A 1.637 1.637 0 0 1 466.75 0.901 A 1.355 1.355 0 0 1 467.229 0.584 A 1.317 1.317 0 0 1 467.7 0.501 Z" id="11" vector-effect="non-scaling-stroke"/>
<path d="M 543.3 10.751 L 534.25 10.751 L 534.25 25.251 L 543.3 25.251 A 1.295 1.295 0 0 1 544.238 25.638 A 1.637 1.637 0 0 1 544.25 25.651 A 1.355 1.355 0 0 1 544.567 26.129 A 1.317 1.317 0 0 1 544.65 26.601 L 544.65 34.151 A 1.295 1.295 0 0 1 544.262 35.088 A 1.637 1.637 0 0 1 544.25 35.101 A 1.355 1.355 0 0 1 543.771 35.417 A 1.317 1.317 0 0 1 543.3 35.501 L 511.6 35.501 A 1.295 1.295 0 0 1 510.663 35.113 A 1.637 1.637 0 0 1 510.65 35.101 A 1.355 1.355 0 0 1 510.334 34.622 A 1.317 1.317 0 0 1 510.25 34.151 L 510.25 26.601 A 1.295 1.295 0 0 1 510.638 25.663 A 1.637 1.637 0 0 1 510.65 25.651 A 1.355 1.355 0 0 1 511.129 25.334 A 1.317 1.317 0 0 1 511.6 25.251 L 520.75 25.251 L 520.75 10.751 L 511.6 10.751 A 1.295 1.295 0 0 1 510.663 10.363 A 1.637 1.637 0 0 1 510.65 10.351 A 1.355 1.355 0 0 1 510.334 9.872 A 1.317 1.317 0 0 1 510.25 9.401 L 510.25 1.851 A 1.295 1.295 0 0 1 510.638 0.913 A 1.637 1.637 0 0 1 510.65 0.901 A 1.355 1.355 0 0 1 511.129 0.584 A 1.317 1.317 0 0 1 511.6 0.501 L 543.3 0.501 A 1.295 1.295 0 0 1 544.238 0.888 A 1.637 1.637 0 0 1 544.25 0.901 A 1.355 1.355 0 0 1 544.567 1.379 A 1.317 1.317 0 0 1 544.65 1.851 L 544.65 9.401 A 1.295 1.295 0 0 1 544.262 10.338 A 1.637 1.637 0 0 1 544.25 10.351 A 1.355 1.355 0 0 1 543.771 10.667 A 1.317 1.317 0 0 1 543.3 10.751 Z" id="12" vector-effect="non-scaling-stroke"/>
<path d="M 570.1 25.251 L 586.05 25.251 A 1.295 1.295 0 0 1 586.988 25.638 A 1.637 1.637 0 0 1 587 25.651 A 1.355 1.355 0 0 1 587.317 26.129 A 1.317 1.317 0 0 1 587.4 26.601 L 587.4 34.151 A 1.295 1.295 0 0 1 587.012 35.088 A 1.637 1.637 0 0 1 587 35.101 A 1.355 1.355 0 0 1 586.521 35.417 A 1.317 1.317 0 0 1 586.05 35.501 L 553.95 35.501 A 1.295 1.295 0 0 1 553.013 35.113 A 1.637 1.637 0 0 1 553 35.101 A 1.355 1.355 0 0 1 552.684 34.622 A 1.317 1.317 0 0 1 552.6 34.151 L 552.6 26.951 A 2.81 2.81 0 0 1 552.685 26.24 A 1.912 1.912 0 0 1 553.35 25.201 L 569.15 10.751 L 555 10.751 A 1.295 1.295 0 0 1 554.063 10.363 A 1.637 1.637 0 0 1 554.05 10.351 A 1.355 1.355 0 0 1 553.734 9.872 A 1.317 1.317 0 0 1 553.65 9.401 L 553.65 1.851 A 1.295 1.295 0 0 1 554.038 0.913 A 1.637 1.637 0 0 1 554.05 0.901 A 1.355 1.355 0 0 1 554.529 0.584 A 1.317 1.317 0 0 1 555 0.501 L 585 0.501 A 1.295 1.295 0 0 1 585.938 0.888 A 1.637 1.637 0 0 1 585.95 0.901 A 1.355 1.355 0 0 1 586.267 1.379 A 1.317 1.317 0 0 1 586.35 1.851 L 586.35 9.001 A 2.734 2.734 0 0 1 586.266 9.697 A 1.94 1.94 0 0 1 585.7 10.651 L 570.1 25.251 Z" id="13" vector-effect="non-scaling-stroke"/>
<path d="M 625.5 16.951 L 625.5 19.051 A 1.913 1.913 0 0 1 625.126 20.167 Q 624.912 20.471 624.576 20.759 A 5.147 5.147 0 0 1 624.05 21.151 L 603.05 34.651 Q 602.819 34.789 602.48 34.8 A 1.808 1.808 0 0 1 602.425 34.801 A 0.893 0.893 0 0 1 601.865 34.603 A 1.227 1.227 0 0 1 601.75 34.501 A 1.012 1.012 0 0 1 601.45 33.779 A 1.328 1.328 0 0 1 601.45 33.751 L 601.45 25.651 A 3.171 3.171 0 0 1 601.477 25.217 Q 601.555 24.659 601.85 24.401 Q 602.242 24.058 602.346 24.003 A 0.208 0.208 0 0 1 602.35 24.001 A 36.666 36.666 0 0 1 602.503 23.883 Q 602.985 23.517 603.046 23.501 A 0.019 0.019 0 0 1 603.05 23.501 L 611.8 18.001 L 603.05 12.501 Q 602.878 12.501 602.466 12.149 A 6.296 6.296 0 0 1 602.325 12.026 Q 601.905 11.646 601.757 11.474 A 0.785 0.785 0 0 1 601.7 11.401 Q 601.469 10.799 601.451 10.411 A 1.372 1.372 0 0 1 601.45 10.351 L 601.45 2.251 A 1.109 1.109 0 0 1 601.518 1.856 A 0.997 0.997 0 0 1 601.75 1.501 A 1.106 1.106 0 0 1 602.006 1.306 A 0.87 0.87 0 0 1 602.425 1.201 Q 602.8 1.201 603.05 1.351 L 624.05 14.851 Q 625.5 15.801 625.5 16.951 Z" id="14" vector-effect="non-scaling-stroke"/>
</g>
</svg>